<?xml version="1.0" encoding="UTF-8" standalone="no"?>
<!-- Created with Inkscape (http://www.inkscape.org/) -->

<svg
   xmlns:dc="http://purl.org/dc/elements/1.1/"
   xmlns:cc="http://creativecommons.org/ns#"
   xmlns:rdf="http://www.w3.org/1999/02/22-rdf-syntax-ns#"
   xmlns:svg="http://www.w3.org/2000/svg"
   xmlns="http://www.w3.org/2000/svg"
   xmlns:sodipodi="http://sodipodi.sourceforge.net/DTD/sodipodi-0.dtd"
   xmlns:inkscape="http://www.inkscape.org/namespaces/inkscape"
   id="svg2"
   version="1.1"
   inkscape:version="0.91 r13725"
   xml:space="preserve"
   width="626.51251"
   height="96.6875"
   viewBox="0 0 626.51251 96.6875"
   sodipodi:docname="8258e_Dialogue_Logo.svg"><metadata
     id="metadata8"><rdf:RDF><cc:Work
         rdf:about=""><dc:format>image/svg+xml</dc:format><dc:type
           rdf:resource="http://purl.org/dc/dcmitype/StillImage" /><dc:title></dc:title></cc:Work></rdf:RDF></metadata><defs
     id="defs6" /><sodipodi:namedview
     pagecolor="#ffffff"
     bordercolor="#666666"
     borderopacity="1"
     objecttolerance="10"
     gridtolerance="10"
     guidetolerance="10"
     inkscape:pageopacity="0"
     inkscape:pageshadow="2"
     inkscape:window-width="2613"
     inkscape:window-height="1474"
     id="namedview4"
     showgrid="false"
     inkscape:zoom="1"
     inkscape:cx="315.00874"
     inkscape:cy="48.34375"
     inkscape:window-x="398"
     inkscape:window-y="451"
     inkscape:window-maximized="0"
     inkscape:current-layer="g10" /><g
     id="g10"
     inkscape:groupmode="layer"
     inkscape:label="ink_ext_XXXXXX"
     transform="matrix(1.25,0,0,-1.25,0,96.6875)"><g
       id="g12"
       transform="scale(0.1,0.1)"><path
         d="m 1613.68,170.586 -135.37,0 0,345.633 135.37,0 c 98.65,0 172.82,-79.207 172.82,-172.821 0,-93.601 -74.17,-172.812 -172.82,-172.812 z m 7.21,424.84 -186.5,0 c -25.92,0 -43.92,-19.446 -43.92,-43.922 l 0,-416.191 c 0,-24.493 18,-43.9263 43.92,-43.9263 l 186.5,0 c 146.89,0 256.34,112.3243 256.34,252.0113 0,141.856 -113.05,252.028 -256.34,252.028"
         style="fill:#545051;fill-opacity:1;fill-rule:nonzero;stroke:none"
         id="path14"
         inkscape:connector-curvature="0" /><path
         d="m 1989,609.824 c -25.92,0 -43.92,-19.437 -43.92,-43.922 l 0,-445.004 c 0,-24.4722 18,-43.9175 43.92,-43.9175 25.92,0 43.92,19.4453 43.92,43.9175 l 0,445.004 c 0,24.485 -18,43.922 -43.92,43.922"
         style="fill:#545051;fill-opacity:1;fill-rule:nonzero;stroke:none"
         id="path16"
         inkscape:connector-curvature="0" /><path
         d="m 2928.75,170.586 -207.38,0 0,395.316 c 0,24.485 -18,43.922 -43.92,43.922 -25.92,0 -43.92,-19.437 -43.92,-43.922 l 0,-434.918 c 0,-20.164 13.68,-39.5973 39.6,-39.5973 l 255.62,0 c 25.93,0 39.61,19.4333 39.61,39.5973 0,20.168 -13.68,39.602 -39.61,39.602"
         style="fill:#545051;fill-opacity:1;fill-rule:nonzero;stroke:none"
         id="path18"
         inkscape:connector-curvature="0" /><path
         d="m 3227.47,168.426 c -99.37,0 -174.97,78.488 -174.97,174.972 0,96.493 75.6,174.981 174.97,174.981 99.37,0 174.98,-78.488 174.98,-174.981 0,-96.484 -75.61,-174.972 -174.98,-174.972 z m 0,437.801 c -148.33,0 -262.82,-113.047 -262.82,-262.829 0,-149.765 114.49,-262.8121 262.82,-262.8121 148.34,0 262.83,113.0471 262.83,262.8121 0,149.782 -114.49,262.829 -262.83,262.829"
         style="fill:#545051;fill-opacity:1;fill-rule:nonzero;stroke:none"
         id="path20"
         inkscape:connector-curvature="0" /><path
         d="m 4505.27,609.824 c -25.93,0 -43.92,-19.437 -43.92,-43.922 l 0,-267.144 c 0,-77.039 -58.32,-138.973 -138.98,-138.973 -80.64,0 -138.96,61.934 -138.96,138.973 l 0,267.144 c 0,24.485 -18.01,43.922 -43.93,43.922 -25.93,0 -43.93,-19.437 -43.93,-43.922 l 0,-272.906 c 0,-128.172 95.78,-212.4101 226.82,-212.4101 131.06,0 226.83,84.2381 226.83,212.4101 l 0,272.906 c 0,24.485 -18.01,43.922 -43.93,43.922"
         style="fill:#545051;fill-opacity:1;fill-rule:nonzero;stroke:none"
         id="path22"
         inkscape:connector-curvature="0" /><path
         d="m 4972.48,170.586 -242.67,0 0,137.539 193.7,0 c 22.32,0 37.44,16.563 37.44,37.441 0,20.879 -15.12,37.442 -37.44,37.442 l -193.7,0 0,133.211 232.58,0 c 25.93,0 39.61,19.441 39.61,39.601 0,20.16 -13.68,39.606 -39.61,39.606 l -280.82,0 c -25.93,0 -39.61,-19.446 -39.61,-39.606 l 0,-424.836 c 0,-20.164 13.68,-39.5973 39.61,-39.5973 l 290.91,0 c 25.92,0 39.6,19.4333 39.6,39.5973 0,20.168 -13.68,39.602 -39.6,39.602"
         style="fill:#545051;fill-opacity:1;fill-rule:nonzero;stroke:none"
         id="path24"
         inkscape:connector-curvature="0" /><path
         d="m 3976.86,342.684 c -25.91,0 -43.92,-19.442 -43.92,-43.926 l 0,-114.336 c -8.98,-2.227 -33.79,-7.207 -51.85,-10.234 -18.32,-3.075 -50.4,-5.762 -84.96,-5.762 -99.37,0 -174.97,78.488 -174.97,174.972 0,96.493 75.6,174.981 174.97,174.981 54.73,0 96.49,-21.602 126.01,-54.004 7.2,-7.922 19.44,-13.684 33.12,-13.684 25.93,0 43.93,19.446 43.93,43.926 0,11.52 -3.61,22.321 -10.8,30.242 -45.36,48.965 -113.77,81.368 -192.26,81.368 -148.33,0 -262.82,-113.047 -262.82,-262.829 0,-149.765 114.49,-262.8121 262.82,-262.8121 96.49,0 165.62,15.8399 195.86,40.3121 22.31,18.008 28.8,41.77 28.8,65.528 l 0,112.332 c 0,24.484 -18,43.926 -43.93,43.926"
         style="fill:#545051;fill-opacity:1;fill-rule:nonzero;stroke:none"
         id="path26"
         inkscape:connector-curvature="0" /><path
         d="m 2259.25,319.648 73.26,160.059 73.39,-160.059 -146.65,0 z M 2584.48,142.5 2382.86,573.824 c -8.64,18.719 -23.77,33.125 -50.41,33.125 -26.64,0 -41.76,-14.406 -50.4,-33.125 L 2080.43,142.5 c -2.88,-6.477 -5.04,-13.672 -5.04,-21.602 0,-24.4722 18,-43.9175 43.92,-43.9175 17.28,0 33.13,9.3672 39.61,23.0395 l 66.12,144.734 215.42,0 65.53,-144.734 c 6.48,-13.6723 22.32,-23.0395 39.6,-23.0395 25.92,0 43.92,19.4453 43.92,43.9175 0,7.93 -2.15,15.125 -5.03,21.602"
         style="fill:#545051;fill-opacity:1;fill-rule:nonzero;stroke:none"
         id="path28"
         inkscape:connector-curvature="0" /><path
         d="M 325.547,313.34 210.707,188.934 c -16.609,-17.996 -43.023,-20.067 -62.066,-2.489 -19.047,17.586 -19.09,44.082 -2.485,62.071 l 79.246,85.859"
         style="fill:#f68162;fill-opacity:1;fill-rule:nonzero;stroke:none"
         id="path30"
         inkscape:connector-curvature="0" /><path
         d="m 263.543,348.633 c -98.648,0 -172.8164,79.207 -172.8164,172.816 0,93.61 74.1684,172.817 172.8164,172.817 l 171.344,0 c 98.644,0 172.816,-79.207 172.816,-172.817 0,-93.609 -74.172,-172.816 -172.816,-172.816 l -171.344,0 z M -0.00390625,521.449 C -0.00390625,381.758 109.445,269.422 256.34,269.422 l 185.75,0 c 146.89,0 256.34,112.336 256.34,252.027 0,141.852 -113.051,252.024 -256.34,252.024 l -185.75,0 C 113.051,773.473 -0.00390625,663.301 -0.00390625,521.449"
         style="fill:#f68162;fill-opacity:1;fill-rule:nonzero;stroke:none"
         id="path32"
         inkscape:connector-curvature="0" /><path
         d="M 758.352,139.043 873.191,14.6367 c 16.606,-17.99608 43.024,-20.06639 62.067,-2.4883 19.047,17.586 19.09,44.0821 2.484,62.0704 l -79.25,85.8592"
         style="fill:#5ec452;fill-opacity:1;fill-rule:nonzero;stroke:none"
         id="path34"
         inkscape:connector-curvature="0" /><path
         d="m 649.012,174.344 c -98.649,0 -172.817,79.203 -172.817,172.812 0,93.606 74.168,172.813 172.817,172.813 l 171.343,0 c 98.649,0 172.817,-79.207 172.817,-172.813 0,-93.609 -74.168,-172.812 -172.817,-172.812 l -171.343,0 z m 178.543,424.832 -185.746,0 c -143.289,0 -256.34,-110.172 -256.34,-252.02 0,-139.695 109.445,-252.0193 256.34,-252.0193 l 185.746,0 c 146.894,0 256.345,112.3243 256.345,252.0193 0,141.848 -113.052,252.02 -256.345,252.02"
         style="fill:#5ec452;fill-opacity:1;fill-rule:nonzero;stroke:none"
         id="path36"
         inkscape:connector-curvature="0" /></g></g></svg>